<?xml version="1.0" encoding="UTF-8" standalone="no"?>
<svg
   xmlns:dc="http://purl.org/dc/elements/1.1/"
   xmlns:cc="http://creativecommons.org/ns#"
   xmlns:rdf="http://www.w3.org/1999/02/22-rdf-syntax-ns#"
   xmlns:svg="http://www.w3.org/2000/svg"
   xmlns="http://www.w3.org/2000/svg"
   xmlns:sodipodi="http://sodipodi.sourceforge.net/DTD/sodipodi-0.dtd"
   xmlns:inkscape="http://www.inkscape.org/namespaces/inkscape"
   sodipodi:docname="cover.svg"
   inkscape:version="1.0 (4035a4fb49, 2020-05-01)"
   id="svg8"
   version="1.1"
   viewBox="0 0 210 297"
   height="297mm"
   width="210mm"
   inkscape:export-filename="C:\Users\L\git\tae-kim_latex\epub\cover.png"
   inkscape:export-xdpi="192"
   inkscape:export-ydpi="192">
  <defs
     id="defs2" />
  <sodipodi:namedview
     inkscape:window-maximized="1"
     inkscape:window-y="-8"
     inkscape:window-x="-8"
     inkscape:window-height="1027"
     inkscape:window-width="1920"
     showgrid="false"
     inkscape:document-rotation="0"
     inkscape:current-layer="layer1"
     inkscape:document-units="mm"
     inkscape:cy="669.83128"
     inkscape:cx="248.20811"
     inkscape:zoom="0.49497475"
     inkscape:pageshadow="2"
     inkscape:pageopacity="1"
     borderopacity="1.0"
     bordercolor="#666666"
     pagecolor="#ffffff"
     id="base" />
  <metadata
     id="metadata5">
    <rdf:RDF>
      <cc:Work
         rdf:about="">
        <dc:format>image/svg+xml</dc:format>
        <dc:type
           rdf:resource="http://purl.org/dc/dcmitype/StillImage" />
        <dc:title></dc:title>
      </cc:Work>
    </rdf:RDF>
  </metadata>
  <g
     id="layer1"
     inkscape:groupmode="layer"
     inkscape:label="Layer 1">
    <path
       style="fill:#ff0000;stroke:none;stroke-width:0.0122405"
       id="path835"
       d="M 101.62987,49.253784 C 85.190816,50.294231 70.465429,57.161181 59.302053,68.98555 46.6086,82.45016 40.525043,101.09251 42.814025,119.57575 c 1.175094,9.43746 4.541248,18.60563 9.755719,26.59872 9.143695,14.00319 23.648749,23.79563 40.124531,27.11282 4.504519,0.89356 7.270886,1.16285 12.301755,1.16285 4.39435,0 6.20595,-0.13465 9.90259,-0.73443 23.34274,-3.74561 42.46249,-20.17243 49.74562,-42.70729 8.81319,-27.29643 -2.17882,-57.22457 -26.59873,-72.402855 -8.091,-5.018625 -17.12453,-8.078763 -26.92921,-9.11921 -1.6892,-0.183608 -7.89516,-0.330495 -9.48643,-0.232571 z m 13.48909,43.258106 0.0367,14.62746 -0.35498,5.69186 c -0.18361,3.13357 -0.31825,5.74081 -0.29378,5.78977 0.0367,0.0612 1.30974,-1.56679 2.83983,-3.61096 2.41137,-3.2315 3.59872,-4.66364 9.1804,-11.02873 l 6.41405,-7.30761 h 7.02608 c 4.3454,0 7.00159,0.049 6.95263,0.11016 -0.0367,0.0734 -4.11282,4.76158 -9.07024,10.42896 -4.94519,5.6796 -8.97233,10.37998 -8.9356,10.45342 0.0367,0.12241 17.35709,24.57903 18.76475,26.52527 l 0.42842,0.58755 h -7.22192 -7.23416 l -6.02235,-8.89888 c -3.3172,-4.90846 -6.29165,-9.27834 -6.59766,-9.71899 l -0.56306,-0.80788 -2.64396,2.21554 -2.65621,2.21554 -0.0122,7.49121 v 7.50346 h -6.30388 -6.30389 v -33.39222 c 0,-18.37307 0.0367,-33.44118 0.0857,-33.47791 0.0367,-0.049 2.86428,-0.0734 6.26716,-0.0612 l 6.19372,0.0367 z M 80.025306,91.59385 v 5.07983 h 6.426286 6.426294 v 4.95742 4.95743 h -6.426294 -6.426286 v 11.83661 c 0,7.6993 0.04897,12.13038 0.134643,12.64448 0.465142,2.88878 2.582759,4.32092 6.10804,4.11283 1.995205,-0.11017 3.770084,-0.46514 6.891429,-1.38318 0.195849,-0.0612 0.208087,0.22033 0.208087,4.83502 v 4.90846 l -0.967007,0.36721 c -3.096854,1.19957 -6.291643,1.72592 -10.379987,1.72592 -8.482705,0 -12.681208,-3.31719 -14.125595,-11.1389 -0.281532,-1.53007 -0.281532,-1.55455 -0.330492,-14.72539 l -0.03674,-13.18306 h -2.986695 -2.998941 v -2.79085 -2.77861 l 3.378401,-2.14209 c 1.848315,-1.1751 3.415107,-2.19107 3.476313,-2.26451 0.04897,-0.0612 0.881317,-2.3257 1.836078,-5.01862 0.954768,-2.69292 1.76264,-4.93294 1.787124,-4.9819 0.03674,-0.0612 1.848323,-0.0979 4.039384,-0.0979 h 3.96594 z" />
    <text
       id="text849"
       y="213.55655"
       x="15.571635"
       style="font-style:normal;font-variant:normal;font-weight:normal;font-stretch:normal;font-size:16.9333px;line-height:1.25;font-family:'Linux Biolinum O';-inkscape-font-specification:'Linux Biolinum O';letter-spacing:0px;word-spacing:0px;fill:#000000;fill-opacity:1;stroke:none;stroke-width:0.264583"
       xml:space="preserve"><tspan
         style="font-style:normal;font-variant:normal;font-weight:normal;font-stretch:normal;font-size:16.9333px;font-family:'Linux Biolinum O';-inkscape-font-specification:'Linux Biolinum O';stroke-width:0.264583"
         y="213.55655"
         x="15.571635"
         id="tspan847"
         sodipodi:role="line">Japanese Grammar Guide</tspan></text>
    <text
       id="text853"
       y="246.81844"
       x="76.903366"
       style="font-style:normal;font-variant:normal;font-weight:normal;font-stretch:normal;font-size:16.9333px;line-height:1.25;font-family:'Linux Biolinum O';-inkscape-font-specification:'Linux Biolinum O';letter-spacing:0px;word-spacing:0px;fill:#000000;fill-opacity:1;stroke:none;stroke-width:0.264583"
       xml:space="preserve"><tspan
         style="font-style:normal;font-variant:normal;font-weight:normal;font-stretch:normal;font-size:16.9333px;font-family:'Linux Biolinum O';-inkscape-font-specification:'Linux Biolinum O';stroke-width:0.264583"
         y="246.81844"
         x="76.903366"
         id="tspan851"
         sodipodi:role="line">Tae Kim</tspan></text>
  </g>
</svg>
